# xmcd
#
# Track frame offsets:
#	182
#	17522
#	38157
#	57310
#	79632
#	103210
#	124417
#	145835
#	164875
#	184062
#	205387
#	226507
#	247132
#	267705
#	287297
#	308297
#
# Disc length: 4416 seconds
#
# Revision: 0
# Processed by: cddbd v1.4b41PL2 Copyright (c) Steve Scherf et al.
# Submitted via: EZCDDA 4.3.3.2
#
DISCID=e1113e10
DTITLE=Commissioned - The Light Years
DYEAR=1900
DGENRE=
TTITLE0=I'm Going On
TTITLE1=Unworthy
TTITLE2='tis So Sweet
TTITLE3=Victory
TTITLE4=Love Isn't Love
TTITLE5=Go Tell Somebody
TTITLE6=Running Back To You
TTITLE7=Keep On Blessing Me
TTITLE8=How Can We Sing (in A Strange Land)
TTITLE9=Only What You Do For Christ Will Last
TTITLE10=So Good To Know (the Savior)
TTITLE11=Lord Jesus Help Me (help Somebody Else)
TTITLE12=Will You Be Ready?
TTITLE13=If My People
TTITLE14=No More Loneliness
TTITLE15=Ordinary Just Won't Do
EXTD=
EXTT0=
EXTT1=
EXTT2=
EXTT3=
EXTT4=
EXTT5=
EXTT6=
EXTT7=
EXTT8=
EXTT9=
EXTT10=
EXTT11=
EXTT12=
EXTT13=
EXTT14=
EXTT15=
PLAYORDER=
